<?xml version="1.0" encoding="utf-8"?>
<!-- Generator: Adobe Illustrator 17.0.0, SVG Export Plug-In . SVG Version: 6.00 Build 0)  -->
<!DOCTYPE svg PUBLIC "-//W3C//DTD SVG 1.1//EN" "http://www.w3.org/Graphics/SVG/1.1/DTD/svg11.dtd">
<svg version="1.1" id="bulbsonly_x5F_logo" xmlns="http://www.w3.org/2000/svg" xmlns:xlink="http://www.w3.org/1999/xlink" x="0px"
	 y="0px" width="309.2888px" height="106.4347px" viewBox="0 0 309.2888 106.4347" enable-background="new 0 0 309.2888 106.4347"
	 xml:space="preserve">
<text transform="matrix(1 0 0 1 63.7478 59.9068)"><tspan x="0" y="0" fill="#CE4E17" font-family="'OpenSans-BoldItalic'" font-size="56.0514">ulb</tspan><tspan x="83.8584" y="0" fill="#CE4E17" font-family="'OpenSans-BoldItalic'" font-size="56.0514" letter-spacing="-2">s</tspan><tspan x="107.5762" y="0" fill="#CE4E17" font-family="'OpenSans-BoldItalic'" font-size="56.0514"> Only</tspan></text>
<text transform="matrix(1 0 0 1 12.5154 61.6436)" fill="#CE4E17" stroke="#CE4E17" stroke-width="2" stroke-miterlimit="10" font-family="'GiddyupStd'" font-size="71.778" letter-spacing="7">B</text>
<g>
	<linearGradient id="SVGID_1_" gradientUnits="userSpaceOnUse" x1="0.5" y1="46.5835" x2="63.5631" y2="46.5835">
		<stop  offset="0" style="stop-color:#D96616"/>
		<stop  offset="1" style="stop-color:#CE4E17"/>
	</linearGradient>
	<path fill="url(#SVGID_1_)" stroke="#CE4E17" stroke-miterlimit="10" d="M27.7577,83.3276c0,0,0.377,1.4452,0.87,4.4229
		l-0.131,0.0218l0.8138,4.8946l25.4444-7.1792c-0.1588-0.8075-0.2807-1.4341-0.3442-1.7618
		c-0.5186-2.6644-0.7328-3.9253-0.8032-4.4963c0.0144-0.0736,0.0245-0.133,0.0432-0.2075l0.0304-0.0051
		c0,0-0.0093-0.0295-0.0184-0.0567c2.3162-11.079,11.2287-42.9905,9.7319-51.9922C60.5276,9.7506,44.1889-1.9314,26.9697,0.9317
		C9.7503,3.7948-1.9313,20.1357,0.9317,37.354c1.706,10.2602,20.7356,36.1858,26.8887,45.9632L27.7577,83.3276z M27.7066,5.3634
		c14.7784-2.4572,28.7998,7.5642,31.2568,22.3415c1.2649,7.6072-6.8178,36.7532-9.9971,51.7629L32.5484,82.389
		C24.4498,69.6325,6.8258,45.4124,5.3634,36.6171C2.9063,21.8398,12.9281,7.8207,27.7066,5.3634z"/>
	<linearGradient id="SVGID_2_" gradientUnits="userSpaceOnUse" x1="29.9461" y1="94.7783" x2="55.9324" y2="94.7783">
		<stop  offset="0" style="stop-color:#D96616"/>
		<stop  offset="1" style="stop-color:#CE4E17"/>
	</linearGradient>
	<path fill="url(#SVGID_2_)" stroke="#CE4E17" stroke-miterlimit="10" d="M30.1127,97.4906
		c-0.0938,0.091,0.0168,1.3046,0.7197,2.7778l25.1-7.0842c-0.022-0.1852-0.0379-0.3473-0.0359-0.4699
		c-0.0051-0.6196-0.1964-1.9576-0.4451-3.4262l-25.5053,7.2008L30.1127,97.4906L30.1127,97.4906z"/>
	<linearGradient id="SVGID_3_" gradientUnits="userSpaceOnUse" x1="33.4341" y1="101.5402" x2="56.0727" y2="101.5402">
		<stop  offset="0" style="stop-color:#D96616"/>
		<stop  offset="1" style="stop-color:#CE4E17"/>
	</linearGradient>
	<path fill="url(#SVGID_3_)" stroke="#CE4E17" stroke-miterlimit="10" d="M45.0405,105.6156
		c8.4775-1.3671,10.6319-5.2613,11.0322-8.4699l-22.6386,6.3926C35.6545,105.3039,39.2452,106.5501,45.0405,105.6156z"/>
</g>
</svg>
