<?xml version="1.0" encoding="utf-8"?>
<!-- Generator: Adobe Illustrator 17.0.0, SVG Export Plug-In . SVG Version: 6.00 Build 0)  -->
<!DOCTYPE svg PUBLIC "-//W3C//DTD SVG 1.1//EN" "http://www.w3.org/Graphics/SVG/1.1/DTD/svg11.dtd">
<svg version="1.1" id="lowest" xmlns="http://www.w3.org/2000/svg" xmlns:xlink="http://www.w3.org/1999/xlink" x="0px" y="0px"
	 width="161.2918px" height="133.8836px" viewBox="0 0 161.2918 133.8836" enable-background="new 0 0 161.2918 133.8836"
	 xml:space="preserve">
<g>
	<g>
		
			<linearGradient id="SVGID_1_" gradientUnits="userSpaceOnUse" x1="22.5" y1="66.9418" x2="163.4783" y2="66.9418" gradientTransform="matrix(-1 0 0 1 183.2918 0)">
			<stop  offset="0" style="stop-color:#D96616"/>
			<stop  offset="1" style="stop-color:#CE4E17"/>
		</linearGradient>
		<path fill="url(#SVGID_1_)" stroke="#CE4E17" stroke-miterlimit="10" d="M19.8136,131.2854c0,1.1582,0.94,2.0982,2.0982,2.0982
			h136.782c1.1582,0,2.0982-0.94,2.0982-2.0982V2.5982c0-1.1582-0.94-2.0982-2.0982-2.0982s-2.0982,0.94-2.0982,2.0982V14.022
			h-5.6175c-0.3861,0-0.6994,0.3133-0.6994,0.6994s0.3133,0.6994,0.6994,0.6994h5.6175v12.589h-5.6175
			c-0.3861,0-0.6994,0.3133-0.6994,0.6994s0.3133,0.6994,0.6994,0.6994h5.6175v12.589h-5.6175
			c-0.3861,0-0.6994,0.3133-0.6994,0.6994c0,0.3861,0.3133,0.6994,0.6994,0.6994h5.6175v12.589h-5.6175
			c-0.3861,0-0.6994,0.3133-0.6994,0.6994c0,0.3861,0.3133,0.6994,0.6994,0.6994h5.6175v12.589h-5.6175
			c-0.3861,0-0.6994,0.3133-0.6994,0.6994s0.3133,0.6994,0.6994,0.6994h5.6175v12.589h-5.6175
			c-0.3861,0-0.6994,0.3133-0.6994,0.6994s0.3133,0.6994,0.6994,0.6994h5.6175v12.589h-5.6175
			c-0.3861,0-0.6994,0.3133-0.6994,0.6994s0.3133,0.6994,0.6994,0.6994h5.6175v12.589h-5.6175
			c-0.3861,0-0.6994,0.3133-0.6994,0.6994s0.3133,0.6994,0.6994,0.6994h5.6175v15.8523h-25.4101v-6.7617
			c0-0.3847-0.3133-0.6994-0.6994-0.6994c-0.386,0-0.6994,0.3147-0.6994,0.6994v6.7617h-12.589v-6.7617
			c0-0.3847-0.3133-0.6994-0.6994-0.6994c-0.3861,0-0.6994,0.3147-0.6994,0.6994v6.7617h-12.589v-6.7617
			c0-0.3847-0.3133-0.6994-0.6994-0.6994s-0.6994,0.3147-0.6994,0.6994v6.7617h-12.589v-6.7617
			c0-0.3847-0.3133-0.6994-0.6994-0.6994s-0.6994,0.3147-0.6994,0.6994v6.7617h-12.589v-6.7617
			c0-0.3847-0.3133-0.6994-0.6994-0.6994c-0.3847,0-0.6994,0.3147-0.6994,0.6994v6.7617h-12.589v-6.7617
			c0-0.3847-0.3133-0.6994-0.6994-0.6994c-0.3847,0-0.6994,0.3147-0.6994,0.6994v6.7617h-12.589v-6.7617
			c0-0.3847-0.3133-0.6994-0.6994-0.6994c-0.3847,0-0.6994,0.3147-0.6994,0.6994v6.7617h-12.589v-6.7617
			c0-0.3847-0.3133-0.6994-0.6994-0.6994c-0.3847,0-0.6994,0.3147-0.6994,0.6994v6.7617h-9.9607
			C20.7536,129.1872,19.8136,130.1272,19.8136,131.2854z"/>
		
			<linearGradient id="SVGID_2_" gradientUnits="userSpaceOnUse" x1="51.5511" y1="101.5" x2="51.5511" y2="22.4431" gradientTransform="matrix(-1 0 0 1 183.2918 0)">
			<stop  offset="0" style="stop-color:#D96616"/>
			<stop  offset="1" style="stop-color:#CE4E17"/>
		</linearGradient>
		<rect x="124.572" y="19.5274" fill="url(#SVGID_2_)" stroke="#CE4E17" stroke-miterlimit="10" width="14.3374" height="94.8299"/>
		
			<linearGradient id="SVGID_3_" gradientUnits="userSpaceOnUse" x1="81.9745" y1="101.5" x2="81.9745" y2="22.4431" gradientTransform="matrix(-1 0 0 1 183.2918 0)">
			<stop  offset="0" style="stop-color:#D96616"/>
			<stop  offset="1" style="stop-color:#CE4E17"/>
		</linearGradient>
		<path fill="url(#SVGID_3_)" stroke="#CE4E17" stroke-miterlimit="10" d="M94.1486,114.3574h14.3374V56.3083h-9.7746
			c-1.1638,2.7556-2.6856,5.3951-4.5628,7.8485V114.3574z"/>
		
			<linearGradient id="SVGID_4_" gradientUnits="userSpaceOnUse" x1="112.0495" y1="101.5" x2="112.0495" y2="22.4431" gradientTransform="matrix(-1 0 0 1 183.2918 0)">
			<stop  offset="0" style="stop-color:#D96616"/>
			<stop  offset="1" style="stop-color:#CE4E17"/>
		</linearGradient>
		<path fill="url(#SVGID_4_)" stroke="#CE4E17" stroke-miterlimit="10" d="M64.0736,114.356H78.411V75.9443
			c-4.076,1.5596-8.443,2.3849-12.9443,2.3849c-0.4644,0-0.9288-0.0294-1.3932-0.049V114.356z"/>
		
			<linearGradient id="SVGID_5_" gradientUnits="userSpaceOnUse" x1="143.522" y1="101.5" x2="143.522" y2="22.4431" gradientTransform="matrix(-1 0 0 1 183.2918 0)">
			<stop  offset="0" style="stop-color:#D96616"/>
			<stop  offset="1" style="stop-color:#CE4E17"/>
		</linearGradient>
		<path fill="url(#SVGID_5_)" stroke="#CE4E17" stroke-miterlimit="10" d="M32.6012,114.356h14.3374v-41.138
			c-0.1776-0.1049-0.3637-0.2-0.5413-0.3091L32.6012,86.9079V114.356z"/>
		<linearGradient id="SVGID_6_" gradientUnits="userSpaceOnUse" x1="49.0403" y1="4.5" x2="49.0403" y2="55.5612">
			<stop  offset="0" style="stop-color:#D96616"/>
			<stop  offset="1" style="stop-color:#CE4E17"/>
		</linearGradient>
		<path fill="url(#SVGID_6_)" stroke="#CE4E17" stroke-miterlimit="10" d="M1.6827,107.116
			c1.5736,1.5722,4.1222,1.5722,5.6958-0.0014l38.7139-39.279c12.5246,9.7061,30.6513,8.8431,42.1451-2.6507
			c12.4575-12.4617,12.4575-32.7327,0-45.193c-12.4617-12.4589-32.7355-12.4589-45.193,0
			c-11.4937,11.4923-12.3582,29.6218-2.6507,42.1437L1.6799,101.4174C0.1062,102.991,0.1062,105.5424,1.6827,107.116z
			 M48.7374,25.6905c9.32-9.32,24.4813-9.3172,33.8,0c9.3172,9.3172,9.3186,24.4799,0,33.7972c-9.3186,9.32-24.4813,9.3186-33.8,0
			C39.4188,50.1705,39.4188,35.0078,48.7374,25.6905z"/>
		
			<linearGradient id="SVGID_7_" gradientUnits="userSpaceOnUse" x1="86.7678" y1="41.7436" x2="103.6806" y2="41.7436" gradientTransform="matrix(1 0 0 1 -29.1565 0)">
			<stop  offset="0" style="stop-color:#D96616"/>
			<stop  offset="1" style="stop-color:#CE4E17"/>
		</linearGradient>
		<path fill="url(#SVGID_7_)" stroke="#CE4E17" stroke-miterlimit="10" d="M67.6617,39.1705
			c-3.655-1.5121-4.7125-2.4269-4.7125-4.083c0-1.3232,0.9693-2.8703,3.6997-2.8703c2.5695,0,4.1865,0.9246,4.8775,1.319
			c0.1762,0.1021,0.3889,0.1189,0.5833,0.0518c0.193-0.0699,0.3441-0.2182,0.4182-0.4098l1.0379-2.7416
			c0.1217-0.3189-0.0056-0.6784-0.3007-0.8505c-1.4869-0.8658-3.1444-1.3624-5.0468-1.5065v-3.3641
			c0-0.3861-0.3133-0.6994-0.6994-0.6994h-2.5709c-0.3861,0-0.6994,0.3133-0.6994,0.6994v3.613
			c-3.8257,0.8449-6.2637,3.641-6.2637,7.2568c0,4.3628,3.5025,6.3406,7.2778,7.8261c3.02,1.2211,4.2509,2.4646,4.2509,4.2858
			c0,2.0128-1.7037,3.3654-4.2341,3.3654c-1.9583,0-3.9949-0.6071-5.5867-1.6645c-0.1776-0.1203-0.4014-0.1483-0.6071-0.0825
			s-0.3679,0.2252-0.4378,0.428l-0.9959,2.7766c-0.1049,0.2951-0.0028,0.6239,0.2532,0.8057
			c1.4547,1.0379,3.7711,1.7681,6.0525,1.9261v3.5193c0,0.3861,0.3147,0.6994,0.6994,0.6994H67.27
			c0.3861,0,0.6994-0.3133,0.6994-0.6994v-3.7361c3.9431-0.8826,6.5546-3.8858,6.5546-7.6289
			C74.5227,43.592,72.4693,41.1288,67.6617,39.1705z"/>
	</g>
</g>
</svg>
