<?xml version="1.0" encoding="utf-8"?>
<!-- Generator: Adobe Illustrator 17.0.0, SVG Export Plug-In . SVG Version: 6.00 Build 0)  -->
<!DOCTYPE svg PUBLIC "-//W3C//DTD SVG 1.1//EN" "http://www.w3.org/Graphics/SVG/1.1/DTD/svg11.dtd">
<svg version="1.1" id="shipping" xmlns="http://www.w3.org/2000/svg" xmlns:xlink="http://www.w3.org/1999/xlink" x="0px" y="0px"
	 width="215.1546px" height="129.5812px" viewBox="0 0 215.1546 129.5812" enable-background="new 0 0 215.1546 129.5812"
	 xml:space="preserve">
<g>
	<g id="shipping-states">
		<g id="shipping-states_1_">
			<path fill="none" stroke="#CE4E17" stroke-width="3" stroke-linecap="round" stroke-linejoin="round" stroke-miterlimit="10" d="
				M188.0168,118.6545c3.069,0.1437,3.4633-2.5105,3.3385-4.8671c-0.0681-1.2842,0.0703-2.9603-0.6133-4.1045
				c-0.6443-1.0785-1.4038-2.0567-2.0374-3.1601c-0.3802-0.6621-0.8454-1.2704-1.2455-1.9197
				c-0.4525-0.7343-0.112-1.2128-0.2837-1.9774c-0.251-1.1181-1.6655-2.1049-2.3243-3.0085
				c-1.5306-2.0994-3.1985-4.7457-3.3833-7.4016c-0.1671-2.4029,0.6137-6.0033,2.4596-7.6888
				c1.1467-1.0471,2.0101-2.3606,3.061-3.4907c0.7147-0.7686,1.5124-1.1367,1.3894-2.3343
				c-0.1237-1.2048,0.7506-2.3811,1.6878-3.0365c0.525-0.3671,1.8446-0.3244,2.1705-0.773
				c0.3306-0.4549,0.1649-1.4016,0.4435-1.9658c0.2126-0.4769,0.473-0.9261,0.7812-1.3474c0.7416-0.8966,1.784-1.0958,2.5758-1.8453
				l-0.2444-0.9584c0.5022-1.214,0.6285-1.7937,1.4435-2.7728c0.8511-1.0224,1.7142-2.497,0.332-3.4866l-1.8956-3.937
				c-0.0806-1.0661,0.8592-2.0382,0.7867-3.134c-0.0891-1.3461,0.7026-2.1545,1.0303-3.3686c0,0-0.3712-4.4115,0.7307-6.809
				c0.6717-1.4613,0.8139-2.6099,0.5199-4.26c-0.1903-1.0679-0.9637-0.6667-0.9521-1.95c0.0148-1.6403,1.0967-1.6799,1.805-2.8707
				c0.5266-0.8853,2.8147-1.9417,3.759-2.3977c1.0859-0.5244,2.0964-1.8313,3.3108-1.9068c1.6911-0.1051,5.7439-3.464,2.2733-4.0545
				c0,0-2.2229-0.3095-2.9263-1.632"/>
			<path fill="none" stroke="#CE4E17" stroke-width="3" stroke-linecap="round" stroke-linejoin="round" stroke-miterlimit="10" d="
				M127.382,13.8683c-0.5669-0.1376-1.1272-0.2239-1.6388,0.1219c-0.5618,0.3798-1.038,0.3656-1.6613,0.0263
				c-0.5979-0.3254-1.3611-0.2448-2.0141-0.596c-0.3469-0.1866-0.4807-0.3722-0.5868-0.7009
				c-0.1715-0.531-0.3686-1.0564-0.5983-1.5647c-0.1199-0.2653-0.2892-0.5681-0.6616-0.5204
				c-0.3765,0.0483-0.3943,0.3499-0.4596,0.6632c-0.2182,1.0467-0.2415,0.9783-1.3303,1.059
				c-2.9806,0.2207-5.9676,0.2629-8.9493,0.4046c-2.3664,0.1124-4.7361,0.1916-7.0856,0.0633
				c-3.235-0.1768-6.4685-0.0747-9.6977-0.2061l-11.5372-0.0136c-5.9129-0.0267-23.8773-3.2382-29.651-4.512
				c-2.6012-0.5739-5.295-1.1112-7.8554-1.8259c-1.4485-0.4043-2.843-0.9718-4.2859-1.3903
				c-1.0682-0.3099-2.6159-0.331-3.5043-1.0581c-0.5579-0.4566-1.1898,0.1532-0.8816,0.7365
				c0.6829,1.2922,0.0338,2.0463,0.2852,3.21c0.2509,1.1616-0.9354,1.552-0.8723,2.2792c0.0863,0.9952-0.4998,2.7552-1.8852,2.3917
				c-1.5263-0.4004-0.3132-3.3224-0.2532-3.6017c0.2908-1.3543-0.4038-1.9045-1.5757-2.3636
				c-1.1398-0.4465-1.9925-1.5058-3.0108-2.0822c-1.0114-0.5725-0.619,2.9263-0.619,2.8982c0,0,1.7562,3.1952,1.3705,4.7772
				c0,0-0.2731,3.6079-1.7325,5.1826c-0.5327,0.5748-0.0758,1.2677-0.4952,1.9814c-0.4234,0.7206-0.831,1.4639-1.0492,2.2772
				c0.038-0.1415-0.0998,1.1483-0.225,1.2739c-1.0853,1.0879-1.0533,2.7785-1.8207,4.0538
				c-0.8149,1.3544-1.8098,2.5607-2.5514,3.9683"/>
			<path fill="none" stroke="#CE4E17" stroke-width="3" stroke-linecap="round" stroke-linejoin="round" stroke-miterlimit="10" d="
				M128.8239,14.9476c0.0656,0.0772,0.1312,0.1547,0.1978,0.231c0,0,0.9375,1.4045,2.9375,0.9045s6-0.625,6-0.625s-2,1.5-2.5,2.875
				s-2.25,2.125-1,4.375c1.875,1.5,4.625-1.25,7.75,0.5c1.375-0.25,2.75-2.875,5.5-4.75c3.2917,2.2083,5.849-0.8917,7,0.875
				c1.7917,2.75,4.5417,4.4167,5,5.625c0,0,1.4583,2.7917,1.2917,3.7083"/>
			<path fill="none" stroke="#CE4E17" stroke-width="3" stroke-linecap="round" stroke-linejoin="round" stroke-miterlimit="10" d="
				M178.6247,34.3494c0.5726-0.7393,0.5382-1.3169-0.1516-1.9411c-0.5853-0.5296-0.5255-1.1335,0.1482-1.5679
				c0.2549-0.1643,0.4761-0.4045,0.751-0.5098l4.2119-1.4975c0,0,4.125-3.5,4.25-6.125s3.1592-3.6526,3.1592-3.6526
				c2.5499-0.7221,5.5383-1.5868,7.88-2.8325c0.5775-0.3072,0.6275-1.2406,1.3288-1.7387l1.4876-3.717
				c-0.0557-0.6589-0.5445-1.075-0.5275-1.7747c0.0205-0.8453-0.104-1.9539,0.0468-2.689c0.1527-0.7441,0.2847-3.4496,0.8237-3.8694
				c0.9276-0.7224,0.8304,1.0855,1.7907,0.3523c0.7515-0.5739,0.8863-1.6874,1.9523-1.1384
				c1.2897,0.6643,1.5534,1.3377,2.1293,2.6601c0.4019,0.9229,0.9757,3.669,1.9945,4.0495
				c0.2735,0.1021,1.0812-0.1426,1.1118,0.3532c0.0407,0.6594,0.5571,1.047,0.9189,1.5306"/>
			<path fill="none" stroke="#CE4E17" stroke-width="3" stroke-linecap="round" stroke-linejoin="round" stroke-miterlimit="10" d="
				M211.8939,10.4601c0.2868-0.7647,1.3322,0.0286,1.6386,0.4388c0.5664,0.7581-1.0056,2.1164-1.2903,2.8041
				c-0.516,1.2465-0.2043,0.6362-1.1776,1.0171c-0.6026,0.2359-0.6432,1.7999-1.5422,1.5429
				c-0.7319-0.2092-1.6964,2.815-2.3644,3.4069c-0.4701,0.4166-0.9991,0.1705-1.098,1.0014
				c-0.1016,0.8542-0.2788,2.8596-0.7643,3.5683"/>
			<path fill="none" stroke="#CE4E17" stroke-width="3" stroke-linecap="round" stroke-linejoin="round" stroke-miterlimit="10" d="
				M20.33,30.8012c0.8605,0.5412,0.1849,1.4642-0.0058,2.1359c-0.2906,1.0231,0.1942,1.8449,0.0148,2.824
				c-0.1718,0.9375-0.0713,1.6176-0.4121,2.5509c-0.4577,1.2534-1.1755,1.946-1.8025,3.0542
				c-0.5979,1.0569,0.016,1.8206,0.413,2.7815c0.511,1.2367,0.393,2.5674-0.1001,3.7879c-0.9155,2.2658,1.6712,5.2396,1.8971,7.3142
				"/>
			<path fill="none" stroke="#CE4E17" stroke-width="3" stroke-linecap="round" stroke-linejoin="round" stroke-miterlimit="10" d="
				M44.5009,85.2498c-1.1338-0.8026-0.7978-0.4376-2.3333-0.6667c-0.526-0.0785-2.0299-1.3934-4.5-1.5l-1.8333-2.3333"/>
			<path fill="none" stroke="#CE4E17" stroke-width="3" stroke-linecap="round" stroke-linejoin="round" stroke-miterlimit="10" d="
				M140.4812,105.5312c-1.1866-0.7437-2.4558,0.0812-3.7174-0.0025c-1.2865-0.0854-2.291-0.9408-3.6222-0.7331
				c-2.5079,0.3913-4.5918,1.2532-6.3915,3.0463c-1.9997,1.9923-4.4595,3.0149-6.5946,4.7632
				c-1.0225,0.8373-0.8952,0.3959-2.585,2.9761c-1.6898,2.5801-0.8934,3.2192-0.8934,3.2192
				c2.133,3.036,2.3871,7.5199,2.3581,8.8324c-0.0354,1.5981-6.4717-1.5194-7.5972-2.4199c0,0-2.1948-1.8946-2.3782-3.8724
				c-0.105-1.1318-1.4346-2.1327-1.5336-3.2939c-0.1144-1.342-0.0774-1.3357-0.9916-2.262
				c-1.5621-1.5828-3.401-3.7393-3.8785-5.9548c-0.2454-1.1386-2.636-4.0572-3.879-3.9492
				c-1.8021,0.1568-4.176-1.3573-5.2802,1.0801c-0.3658,0.8074-0.5194,2.2675-1.7497,2.3431
				c-0.8566,0.0526-2.7492-1.4852-3.5285-1.909c-2.7807-1.512-1.8333-4.1231-3.6778-6.2183
				c-1.2473-1.4168-2.9788-2.7529-4.4068-3.9437c-0.4078-0.34-0.7605-1.7041-1.2583-1.7713
				c-1.3475-0.1819-2.6811-0.3402-4.0395-0.478c-0.4337-0.044-2.497-0.4988-2.874-0.1546
				c-0.5061,0.4621,0.0184,2.0116-1.1073,1.8067c-2.9171-0.531-5.9565-0.4405-8.8932-0.8848
				c-3.0143-0.456-8.9298-4.225-11.6274-5.6678"/>
			<path fill="none" stroke="#CE4E17" stroke-width="3" stroke-linecap="round" stroke-linejoin="round" stroke-miterlimit="10" d="
				M27.6676,70.7498c1.8333,1.1667,2.6185,3.9768,4.3333,4.6667"/>
			<path fill="none" stroke="#CE4E17" stroke-width="3" stroke-linecap="round" stroke-linejoin="round" stroke-miterlimit="10" d="
				M22.6676,61.4164c0.3867,0.7445,0.9766,2.7584,1.5,3.5"/>
			<path fill="none" stroke="#CE4E17" stroke-width="3" stroke-linecap="round" stroke-linejoin="round" stroke-miterlimit="10" d="
				M22.2987,60.7207"/>
			<path fill="none" stroke="#CE4E17" stroke-width="3" stroke-linecap="round" stroke-linejoin="round" stroke-miterlimit="10" d="
				M19.9655,54.4961"/>
			<path fill="none" stroke="#CE4E17" stroke-width="3" stroke-linecap="round" stroke-linejoin="round" stroke-miterlimit="10" d="
				M139.6792,105.1666c0.4557-1.1427,1.9028-0.3368,2.3968,0.4497c0.6812,1.0845,0.6132,1.0597,1.9866,1.0891
				c0.8745,0.0187,1.3615-0.9477,2.1051-0.5908c0.8488,0.4074,1.2188,0.1521,1.4583-0.7294c0,0,3.3924,0.0371,7.8944-4.54
				c1.8618-1.8928,4.9287-1.9378,5.5931-2.0252c1.5665-0.2062,3.2075,0.0757,4.6133,0.8004
				c1.0655,0.5493,0.8516,1.759,2.3409,1.4977c1.5725-0.2759,1.8212-2.137,3.162-2.6068c1.4459-0.5066,3.1951,1.0553,3.9706,2.1238
				c0.6659,0.9175,2.4255,0.6416,2.7365,1.4039c0.5547,1.3594,0.8044,2.0646,0.5148,3.6666
				c-0.2085,1.1533-0.6255,2.2982,0.962,2.5229l3.0621,2.7705c-0.8433,2.0018,1.0564,2.0451,1.5864,3.8692
				c0.2239,0.7707,0.7256,1.1955,1.5511,1.1129c1.0935-0.1094,2.0321,1.7695,2.3306,2.6002"/>
			<path fill="none" stroke="#CE4E17" stroke-width="3" stroke-linecap="round" stroke-linejoin="round" stroke-miterlimit="10" d="
				M205.0771,24.2396c0.2564-0.0254,0.5972,1.526,0.9478,1.8956"/>
		</g>
	</g>
</g>
<g>
	<linearGradient id="SVGID_1_" gradientUnits="userSpaceOnUse" x1="138.7028" y1="92.4164" x2="138.7028" y2="41.4066">
		<stop  offset="0" style="stop-color:#D96616"/>
		<stop  offset="1" style="stop-color:#CE4E17"/>
	</linearGradient>
	<path fill="url(#SVGID_1_)" d="M95.9041,84.1162v3.3457c0,0.6053,0.4953,1.1006,1.1006,1.1006h8.9143
		c0.6385-4.3691,4.3913-7.7479,8.9367-7.7479c4.5452,0,8.3092,3.3788,8.9474,7.7479h17.9389
		c0.3192-2.2012,1.4307-4.1492,3.0485-5.5468H127.776V51.5401c0-1.2107-0.9795-2.2012-2.2011-2.2012h-10.3891
		c-2.9275,0-5.6567,1.4528-7.2966,3.874l-6.7023,9.9269c-0.9796,1.4526-1.5077,3.1695-1.5077,4.9195v14.9562h-2.6742
		C96.3994,83.0154,95.9043,83.511,95.9041,84.1162z M107.0638,63.3928l5.3596-7.6158c0.2091-0.2862,0.5392-0.4623,0.9024-0.4623
		h8.3533c0.6052,0,1.1005,0.4953,1.1005,1.1006v7.6047c0,0.6162-0.4953,1.1006-1.1005,1.1006h-13.7129
		C107.0749,65.1207,106.5576,64.1193,107.0638,63.3928z M108.0103,89.8717c0,3.7749,3.0706,6.8454,6.8454,6.8454
		c3.7859,0,6.8454-3.0704,6.8454-6.8454c0-3.7859-3.0595-6.8563-6.8454-6.8563C111.0809,83.0154,108.0103,86.0862,108.0103,89.8717z
		 M111.4329,89.8722c0-1.8931,1.53-3.4229,3.4228-3.4229c1.8931,0,3.4228,1.5298,3.4228,3.4229
		c0,1.8819-1.5297,3.4226-3.4228,3.4226C112.9627,93.2948,111.4329,91.754,111.4329,89.8722z M171.93,83.0157h-15.3416
		c1.6069,1.3975,2.7184,3.3456,3.0376,5.5468h12.304c0.6053,0,1.1006-0.4953,1.1006-1.1006V84.116
		c0-0.6051-0.4953-1.1006-1.1006-1.1006V83.0157z M143.8442,89.8717c0,3.7749,3.0595,6.8454,6.8454,6.8454
		c3.7748,0,6.8454-3.0704,6.8454-6.8454c0-3.7859-3.0706-6.8563-6.8454-6.8563C146.9036,83.0154,143.844,86.0862,143.8442,89.8717z
		 M147.2668,89.8722c0-1.8931,1.5298-3.4229,3.4228-3.4229s3.4226,1.5298,3.4226,3.4229c0,1.8819-1.5297,3.4226-3.4226,3.4226
		S147.2668,91.754,147.2668,89.8722z M130.9236,45.8172v32.8074c0,0.6053,0.4951,1.1006,1.1006,1.1006h37.1984
		c0.6053,0,1.1006-0.4953,1.1006-1.1006V66.4634c-1.7279,0.5174-3.5657,0.8034-5.4588,0.8034
		c-10.3891,0-18.8413-8.4522-18.8413-18.8413c0-2.0581,0.3302-4.0501,0.9575-5.91h-12.7554
		C132.3985,42.5155,130.9237,43.9903,130.9236,45.8172z M148.2222,48.4219c0,9.1898,7.4499,16.6396,16.6397,16.6396
		s16.6396-7.4498,16.6396-16.6396s-7.4498-16.6394-16.6396-16.6394S148.2222,39.2321,148.2222,48.4219z M152.0089,48.4219
		c0-7.0984,5.7545-12.853,12.853-12.853c7.0984,0,12.853,5.7545,12.853,12.853s-5.7546,12.853-12.853,12.853
		C157.7634,61.2749,152.0089,55.5204,152.0089,48.4219z M158.3603,49.9153c-0.2375-0.88,0.2836-1.7862,1.164-2.0237l4.142-1.1165
		v-6.9892c0-0.9114,0.7395-1.6508,1.6508-1.6508c0.9113,0,1.6508,0.7395,1.6508,1.6508V48.04c0,0.746-0.5009,1.3993-1.2209,1.5939
		l-5.3628,1.4455c-0.1441,0.0386-0.2892,0.0569-0.4311,0.0569C159.2254,51.1364,158.5591,50.6516,158.3603,49.9153z"/>
</g>
<g>
	<g>
		<linearGradient id="SVGID_2_" gradientUnits="userSpaceOnUse" x1="28.9838" y1="60.4164" x2="28.9838" y2="22.2982">
			<stop  offset="0" style="stop-color:#D96616"/>
			<stop  offset="1" style="stop-color:#CE4E17"/>
		</linearGradient>
		<path fill="url(#SVGID_2_)" d="M38.1432,74.4549L18.8877,85.473c-0.4499,0.2569-0.6068,0.8334-0.3496,1.2848
			c0.1299,0.2255,0.3382,0.3777,0.5704,0.4408c0.2325,0.0633,0.4892,0.0376,0.7158-0.0909L39.08,76.089
			c0.4498-0.2565,0.6067-0.833,0.3494-1.2841C39.1726,74.3517,38.5941,74.1943,38.1432,74.4549z"/>
		<linearGradient id="SVGID_3_" gradientUnits="userSpaceOnUse" x1="15.4559" y1="60.4164" x2="15.4559" y2="22.2982">
			<stop  offset="0" style="stop-color:#D96616"/>
			<stop  offset="1" style="stop-color:#CE4E17"/>
		</linearGradient>
		<path fill="url(#SVGID_3_)" d="M29.5037,64.3817L0.4736,80.9941c-0.4503,0.2571-0.6076,0.835-0.3491,1.2831
			c0.1289,0.2292,0.3382,0.3777,0.5704,0.4408c0.2325,0.0633,0.4892,0.0376,0.7154-0.091l29.0279-16.6112
			c0.4505-0.2589,0.6073-0.8354,0.3496-1.2848C30.5307,64.2807,29.9542,64.1239,29.5037,64.3817z"/>
		<linearGradient id="SVGID_4_" gradientUnits="userSpaceOnUse" x1="12.3724" y1="60.4164" x2="12.3724" y2="22.2982">
			<stop  offset="0" style="stop-color:#D96616"/>
			<stop  offset="1" style="stop-color:#CE4E17"/>
		</linearGradient>
		<path fill="url(#SVGID_4_)" d="M1.9123,70.7736l21.8552-12.5062c0.4505-0.2589,0.6071-0.8347,0.3495-1.2845
			c-0.2573-0.4511-0.8338-0.608-1.2845-0.3495L0.9772,69.1399c-0.4503,0.2582-0.6071,0.8347-0.3494,1.2841
			c0.1294,0.2272,0.3388,0.3756,0.5713,0.4389C1.4315,70.9266,1.686,70.9008,1.9123,70.7736z"/>
		<linearGradient id="SVGID_5_" gradientUnits="userSpaceOnUse" x1="51.8432" y1="60.9152" x2="51.8432" y2="22.797">
			<stop  offset="0" style="stop-color:#D96616"/>
			<stop  offset="1" style="stop-color:#CE4E17"/>
		</linearGradient>
		<path fill="url(#SVGID_5_)" d="M36.6403,94.6624l31.3416-17.9325c0.4498-0.2591,0.6066-0.8356,0.3496-1.2848
			c-0.2587-0.4511-0.8352-0.608-1.2845-0.3495L35.7049,93.0301c-0.4501,0.2564-0.6075,0.8346-0.349,1.2828
			c0.1289,0.2292,0.3382,0.3777,0.5704,0.4408C36.1586,94.8173,36.4153,94.7917,36.6403,94.6624z"/>
		<linearGradient id="SVGID_6_" gradientUnits="userSpaceOnUse" x1="68.4677" y1="59.4164" x2="68.4677" y2="21.2982">
			<stop  offset="0" style="stop-color:#D96616"/>
			<stop  offset="1" style="stop-color:#CE4E17"/>
		</linearGradient>
		<path fill="url(#SVGID_6_)" d="M111.8671,27.4928c-0.0804-0.2875-2.0775-7.0421-7.9548-8.6413
			c-2.941-0.8002-6.291-0.1401-9.9596,1.9577c-4.64,2.6559-11.6173,7.0964-18.597,11.6553l-22.5093-0.0048
			c-0.1928-0.0009-0.3806,0.0583-0.5372,0.1682l-7.6286,5.3282c-0.3002,0.2069-0.4505,0.5699-0.3886,0.9305
			c0.0616,0.3619,0.3287,0.6513,0.6809,0.7471l11.5042,3.1302c0.0852,0.0232,0.1686,0.0165,0.2539,0.0179l-0.0151,0.0423
			l1.9487,0.7255c-3.5488,2.3885-6.1624,4.1628-7.076,4.79l-18.6556-5.076c-0.2585-0.0703-0.5355-0.0248-0.7604,0.1187
			l-6.712,4.3537c-0.2744,0.1787-0.4369,0.4891-0.4287,0.8165c0.008,0.3281,0.1884,0.6269,0.4713,0.7917l15.3698,8.819
			l2.762,15.4245c0.0542,0.2982,0.2506,0.5556,0.5305,0.6833c0.0475,0.0242,0.0994,0.0441,0.1498,0.0578
			c0.2379,0.0647,0.498,0.0306,0.7158-0.0909l10.0114-5.7299c0.2118-0.1195,0.3658-0.316,0.4352-0.5469l3.4637-11.5964
			l15.569-6.2423l-3.8331,25.3127c-0.0521,0.3382,0.0869,0.681,0.362,0.8894c0.2725,0.203,0.6376,0.2537,0.9527,0.1122l8.5076-3.778
			c0.2362-0.1052,0.4182-0.3032,0.5045-0.5509l11.4719-32.6942l18.9512-10.8439C111.806,28.3549,111.9865,27.9093,111.8671,27.4928z
			"/>
	</g>
</g>
</svg>
