<?xml version="1.0" encoding="utf-8"?>
<!-- Generator: Adobe Illustrator 17.0.0, SVG Export Plug-In . SVG Version: 6.00 Build 0)  -->
<!DOCTYPE svg PUBLIC "-//W3C//DTD SVG 1.1//EN" "http://www.w3.org/Graphics/SVG/1.1/DTD/svg11.dtd">
<svg version="1.1" id="support" xmlns="http://www.w3.org/2000/svg" xmlns:xlink="http://www.w3.org/1999/xlink" x="0px" y="0px"
	 width="202.2432px" height="142.7097px" viewBox="0 0 202.2432 142.7097" enable-background="new 0 0 202.2432 142.7097"
	 xml:space="preserve">
<g>
	<g opacity="0.8">
		<g>
			<path fill="none" stroke="#CE4E17" stroke-width="2" stroke-linecap="round" stroke-linejoin="round" stroke-miterlimit="10" d="
				M152.1315,102.1421L123.3204,90.654l-6.7476-5.6838c-1.7825-1.5064-4.4142-1.3955-6.0658,0.2489l-9.3798,9.327l-9.4069-9.3316
				c-1.6541-1.6398-4.282-1.7461-6.0628-0.2443l-6.7464,5.6838l-28.8132,11.4902c-9.2773,3.6943-9.2697,36.5497-10.0662,39.5655
				h122.1802C161.4171,138.701,161.4129,105.833,152.1315,102.1421z"/>
			<path fill="none" stroke="#CE4E17" stroke-width="2" stroke-linecap="round" stroke-linejoin="round" stroke-miterlimit="10" d="
				M68.1291,55.3609l5.4107-0.0138c3.3424,17.4627,15.2033,27.3971,27.5825,27.3971s19.5715-5.8829,24.3417-16.7294
				c-3.6424,2.8563-8.9338,5.4692-16.3374,6.0085c-0.6802,1.0136-1.8365,1.6808-3.1475,1.6808h-3.4596
				c-2.0929,0-3.7901-1.6967-3.7901-3.7905c0-2.0933,1.6972-3.79,3.7901-3.79h3.4596c1.2261,0,2.3125,0.5844,3.0057,1.4876
				c11.9014-0.9555,17.4982-8.1733,19.73-12.2486l5.4019-0.0017c3.3073,0,5.9879-2.6827,5.9879-5.9892V35.7969
				c0-2.1197-1.1056-3.9787-2.7664-5.0434C135.3369,14.0443,119.8604,1,101.1231,1S66.9093,14.0443,64.9084,30.7536
				c-1.6624,1.0646-2.7668,2.9233-2.7668,5.0434v13.5743C62.1399,52.6782,64.8214,55.3609,68.1291,55.3609z M101.1218,7.7882
				c14.7473,0,27.0127,9.7257,29.2742,22.4136c-0.7061,0.2686-1.3478,0.6647-1.8967,1.1634
				c-3.5319-11.1501-13.7362-17.7785-27.3766-17.7785c-13.6408,0-23.8514,6.6238-27.3871,17.7697
				c-0.5472-0.4945-1.1847-0.8881-1.8867-1.1546C74.1091,17.5139,86.3745,7.7882,101.1218,7.7882z"/>
			<path fill="none" stroke="#CE4E17" stroke-width="2" stroke-linecap="round" stroke-linejoin="round" stroke-miterlimit="10" d="
				M194.752,106.053l-18.5533-7.3973l-4.3452-3.66c-1.147-0.9697-2.8417-0.8981-3.9059,0.1598l-6.0398,6.0055l-6.057-6.008
				c-1.0651-1.0554-2.7576-1.1245-3.9038-0.1573l-2.0695,1.7436l3.803,1.516c8.1946,3.2584,10.6197,18.2169,11.8655,33.2767h35.6972
				C200.732,129.5957,200.7291,108.4304,194.752,106.053z"/>
			<path fill="none" stroke="#CE4E17" stroke-width="2" stroke-linecap="round" stroke-linejoin="round" stroke-miterlimit="10" d="
				M136.8044,63.3317v8.7414c0,2.1297,1.7264,3.857,3.857,3.857l3.4834-0.0088c2.1527,11.2442,9.7897,17.6417,17.761,17.6417
				c7.9721,0,12.6026-3.7888,15.6743-10.7719c-2.3443,1.839-5.7533,3.5215-10.5193,3.8687
				c-0.438,0.6534-1.1822,1.0826-2.0276,1.0826h-2.2268c-1.3479,0-2.4405-1.0922-2.4405-2.4405s1.0927-2.4405,2.4405-2.4405h2.2268
				c0.7898,0,1.4897,0.3761,1.9356,0.9576c7.6625-0.6154,11.2677-5.2634,12.7046-7.8872l3.4771-0.0013
				c2.1301,0,3.8566-1.7273,3.8566-3.857v-8.741c0-1.365-0.7107-2.5618-1.7821-3.2475
				c-1.288-10.7598-11.2534-19.1594-23.3197-19.1594c-12.0654,0-22.0312,8.3996-23.3197,19.1594
				C137.5155,60.7699,136.8044,61.9671,136.8044,63.3317z M161.9057,45.2963c9.496,0,17.3945,6.2628,18.8507,14.4327
				c-0.4547,0.1732-0.8676,0.4284-1.2215,0.7496c-2.2749-7.1802-8.846-11.4484-17.6296-11.4484
				c-8.7836,0-15.3585,4.2653-17.6342,11.4425c-0.3535-0.3183-0.763-0.5719-1.2148-0.7434
				C144.5112,51.5587,152.4092,45.2963,161.9057,45.2963z"/>
			<path fill="none" stroke="#CE4E17" stroke-width="2" stroke-linecap="round" stroke-linejoin="round" stroke-miterlimit="10" d="
				M48.5501,98.2571l3.8064-1.5177l-2.0695-1.7432c-1.1471-0.9697-2.8417-0.8986-3.9059,0.1598l-6.0398,6.0055l-6.0574-6.0076
				c-1.0651-1.0559-2.7576-1.1245-3.9038-0.1573l-4.3448,3.6599l-18.5533,7.399C1.5083,108.4342,1.5125,129.5911,1,131.5322h35.6951
				C37.9375,116.4765,40.3567,101.5196,48.5501,98.2571z"/>
			<path fill="none" stroke="#CE4E17" stroke-width="2" stroke-linecap="round" stroke-linejoin="round" stroke-miterlimit="10" d="
				M19.0927,75.9297l3.4838-0.0088c2.1527,11.2451,9.7901,17.6426,17.7614,17.6426s12.6026-3.7888,15.6739-10.7728
				c-2.3451,1.839-5.7533,3.5215-10.5197,3.8695c-0.438,0.653-1.1822,1.0818-2.0272,1.0818h-2.2272
				c-1.3479,0-2.4401-1.0918-2.4401-2.4405c0-1.3474,1.0923-2.4405,2.4401-2.4405h2.2272c0.7894,0,1.4892,0.3765,1.9352,0.9584
				c7.6638-0.6154,11.2681-5.2634,12.705-7.8872l3.478-0.0013c2.1297,0,3.8561-1.7273,3.8561-3.8566v-8.7414
				c0-1.365-0.7112-2.5618-1.7817-3.2475C62.3691,49.3256,52.4033,40.926,40.3379,40.926c-12.0658,0-22.0317,8.3996-23.3197,19.1594
				c-1.0709,0.6856-1.7821,1.8825-1.7821,3.2475v8.741C15.2361,74.2028,16.9626,75.9297,19.0927,75.9297z M40.3379,45.2963
				c9.496,0,17.3941,6.2628,18.8503,14.4327c-0.4551,0.1732-0.8676,0.4284-1.2215,0.7496
				c-2.2744-7.1802-8.8451-11.4484-17.6288-11.4484c-8.7841,0-15.3585,4.2653-17.6355,11.4425
				c-0.3522-0.3183-0.7626-0.5719-1.2144-0.7434C22.9434,51.5587,30.8419,45.2963,40.3379,45.2963z"/>
		</g>
	</g>
</g>
<g opacity="0.8">
	<g opacity="0.7">
		<g>
			<linearGradient id="SVGID_1_" gradientUnits="userSpaceOnUse" x1="101.1218" y1="130.4008" x2="101.1218" y2="13.3966">
				<stop  offset="0" style="stop-color:#D96616"/>
				<stop  offset="1" style="stop-color:#CE4E17"/>
			</linearGradient>
			<path fill="url(#SVGID_1_)" d="M152.1315,102.1421L123.3204,90.654l-6.7476-5.6838c-1.7825-1.5064-4.4142-1.3955-6.0658,0.2489
				l-9.3798,9.327l-9.4069-9.3316c-1.6541-1.6398-4.282-1.7461-6.0628-0.2443l-6.7464,5.6838l-28.8132,11.4902
				c-9.2773,3.6943-9.2697,36.5497-10.0662,39.5655h122.1802C161.4171,138.701,161.4129,105.833,152.1315,102.1421z"/>
			<linearGradient id="SVGID_2_" gradientUnits="userSpaceOnUse" x1="101.1231" y1="130.4008" x2="101.1231" y2="13.3966">
				<stop  offset="0" style="stop-color:#D96616"/>
				<stop  offset="1" style="stop-color:#CE4E17"/>
			</linearGradient>
			<path fill="url(#SVGID_2_)" d="M68.1291,55.3609l5.4107-0.0138c3.3424,17.4627,15.2033,27.3971,27.5825,27.3971
				s19.5715-5.8829,24.3417-16.7294c-3.6424,2.8563-8.9338,5.4692-16.3374,6.0085c-0.6802,1.0136-1.8365,1.6808-3.1475,1.6808
				h-3.4596c-2.0929,0-3.7901-1.6967-3.7901-3.7905c0-2.0933,1.6972-3.79,3.7901-3.79h3.4596c1.2261,0,2.3125,0.5844,3.0057,1.4876
				c11.9014-0.9555,17.4982-8.1733,19.73-12.2486l5.4019-0.0017c3.3073,0,5.9879-2.6827,5.9879-5.9892V35.7969
				c0-2.1197-1.1056-3.9787-2.7664-5.0434C135.3369,14.0443,119.8604,1,101.1231,1S66.9093,14.0443,64.9084,30.7536
				c-1.6624,1.0646-2.7668,2.9233-2.7668,5.0434v13.5743C62.1399,52.6782,64.8214,55.3609,68.1291,55.3609z M101.1218,7.7882
				c14.7473,0,27.0127,9.7257,29.2742,22.4136c-0.7061,0.2686-1.3478,0.6647-1.8967,1.1634
				c-3.5319-11.1501-13.7362-17.7785-27.3766-17.7785c-13.6408,0-23.8514,6.6238-27.3871,17.7697
				c-0.5472-0.4945-1.1847-0.8881-1.8867-1.1546C74.1091,17.5139,86.3745,7.7882,101.1218,7.7882z"/>
			<linearGradient id="SVGID_3_" gradientUnits="userSpaceOnUse" x1="175.5604" y1="130.4008" x2="175.5604" y2="13.3966">
				<stop  offset="0" style="stop-color:#D96616"/>
				<stop  offset="1" style="stop-color:#CE4E17"/>
			</linearGradient>
			<path fill="url(#SVGID_3_)" d="M194.752,106.053l-18.5533-7.3973l-4.3452-3.66c-1.147-0.9697-2.8417-0.8981-3.9059,0.1598
				l-6.0398,6.0055l-6.057-6.008c-1.0651-1.0554-2.7576-1.1245-3.9038-0.1573l-2.0695,1.7436l3.803,1.516
				c8.1946,3.2584,10.6197,18.2169,11.8655,33.2767h35.6972C200.732,129.5957,200.7291,108.4304,194.752,106.053z"/>
			<linearGradient id="SVGID_4_" gradientUnits="userSpaceOnUse" x1="161.9057" y1="130.4008" x2="161.9057" y2="13.3966">
				<stop  offset="0" style="stop-color:#D96616"/>
				<stop  offset="1" style="stop-color:#CE4E17"/>
			</linearGradient>
			<path fill="url(#SVGID_4_)" d="M136.8044,63.3317v8.7414c0,2.1297,1.7264,3.857,3.857,3.857l3.4834-0.0088
				c2.1527,11.2442,9.7897,17.6417,17.761,17.6417c7.9721,0,12.6026-3.7888,15.6743-10.7719
				c-2.3443,1.839-5.7533,3.5215-10.5193,3.8687c-0.438,0.6534-1.1822,1.0826-2.0276,1.0826h-2.2268
				c-1.3479,0-2.4405-1.0922-2.4405-2.4405s1.0927-2.4405,2.4405-2.4405h2.2268c0.7898,0,1.4897,0.3761,1.9356,0.9576
				c7.6625-0.6154,11.2677-5.2634,12.7046-7.8872l3.4771-0.0013c2.1301,0,3.8566-1.7273,3.8566-3.857v-8.741
				c0-1.365-0.7107-2.5618-1.7821-3.2475c-1.288-10.7598-11.2534-19.1594-23.3197-19.1594
				c-12.0654,0-22.0312,8.3996-23.3197,19.1594C137.5155,60.7699,136.8044,61.9671,136.8044,63.3317z M161.9057,45.2963
				c9.496,0,17.3945,6.2628,18.8507,14.4327c-0.4547,0.1732-0.8676,0.4284-1.2215,0.7496
				c-2.2749-7.1802-8.846-11.4484-17.6296-11.4484c-8.7836,0-15.3585,4.2653-17.6342,11.4425
				c-0.3535-0.3183-0.763-0.5719-1.2148-0.7434C144.5112,51.5587,152.4092,45.2963,161.9057,45.2963z"/>
			<linearGradient id="SVGID_5_" gradientUnits="userSpaceOnUse" x1="26.6782" y1="130.4008" x2="26.6782" y2="13.3966">
				<stop  offset="0" style="stop-color:#D96616"/>
				<stop  offset="1" style="stop-color:#CE4E17"/>
			</linearGradient>
			<path fill="url(#SVGID_5_)" d="M48.5501,98.2571l3.8064-1.5177l-2.0695-1.7432c-1.1471-0.9697-2.8417-0.8986-3.9059,0.1598
				l-6.0398,6.0055l-6.0574-6.0076c-1.0651-1.0559-2.7576-1.1245-3.9038-0.1573l-4.3448,3.6599l-18.5533,7.399
				C1.5083,108.4342,1.5125,129.5911,1,131.5322h35.6951C37.9375,116.4765,40.3567,101.5196,48.5501,98.2571z"/>
			<linearGradient id="SVGID_6_" gradientUnits="userSpaceOnUse" x1="40.3377" y1="130.4008" x2="40.3377" y2="13.3966">
				<stop  offset="0" style="stop-color:#D96616"/>
				<stop  offset="1" style="stop-color:#CE4E17"/>
			</linearGradient>
			<path fill="url(#SVGID_6_)" d="M19.0927,75.9297l3.4838-0.0088c2.1527,11.2451,9.7901,17.6426,17.7614,17.6426
				s12.6026-3.7888,15.6739-10.7728c-2.3451,1.839-5.7533,3.5215-10.5197,3.8695c-0.438,0.653-1.1822,1.0818-2.0272,1.0818h-2.2272
				c-1.3479,0-2.4401-1.0918-2.4401-2.4405c0-1.3474,1.0923-2.4405,2.4401-2.4405h2.2272c0.7894,0,1.4892,0.3765,1.9352,0.9584
				c7.6638-0.6154,11.2681-5.2634,12.705-7.8872l3.478-0.0013c2.1297,0,3.8561-1.7273,3.8561-3.8566v-8.7414
				c0-1.365-0.7112-2.5618-1.7817-3.2475C62.3691,49.3256,52.4033,40.926,40.3379,40.926c-12.0658,0-22.0317,8.3996-23.3197,19.1594
				c-1.0709,0.6856-1.7821,1.8825-1.7821,3.2475v8.741C15.2361,74.2028,16.9626,75.9297,19.0927,75.9297z M40.3379,45.2963
				c9.496,0,17.3941,6.2628,18.8503,14.4327c-0.4551,0.1732-0.8676,0.4284-1.2215,0.7496
				c-2.2744-7.1802-8.8451-11.4484-17.6288-11.4484c-8.7841,0-15.3585,4.2653-17.6355,11.4425
				c-0.3522-0.3183-0.7626-0.5719-1.2144-0.7434C22.9434,51.5587,30.8419,45.2963,40.3379,45.2963z"/>
		</g>
	</g>
</g>
</svg>
